<svg xmlns="http://www.w3.org/2000/svg" xmlns:xlink="http://www.w3.org/1999/xlink" contentStyleType="text/css" data-diagram-type="ACTIVITY" height="1395px" preserveAspectRatio="none" style="width:1468px;height:1395px;background:#FFFFFF;" version="1.1" viewBox="0 0 1468 1395" width="1468px" zoomAndPan="magnify"><defs/><g><ellipse cx="771.7681" cy="20" fill="#222222" rx="10" ry="10" style="stroke:#222222;stroke-width:1;"/><rect fill="#F1F1F1" height="33.9688" rx="12.5" ry="12.5" style="stroke:#181818;stroke-width:0.5;" width="115.7305" x="713.9028" y="50"/><text fill="#000000" font-family="sans-serif" font-size="12" lengthAdjust="spacing" textLength="95.7305" x="723.9028" y="71.1387">1. &#1056;&#1077;&#1075;&#1080;&#1089;&#1090;&#1088;&#1072;&#1094;&#1080;&#1103;</text><rect fill="#F1F1F1" height="33.9688" rx="12.5" ry="12.5" style="stroke:#181818;stroke-width:0.5;" width="167.2578" x="688.1392" y="103.9688"/><text fill="#000000" font-family="sans-serif" font-size="12" lengthAdjust="spacing" textLength="147.2578" x="698.1392" y="125.1074">2. &#1055;&#1086;&#1087;&#1086;&#1083;&#1085;&#1077;&#1085;&#1080;&#1077; &#1073;&#1086;&#1085;&#1091;&#1089;&#1086;&#1074;</text><rect fill="#F1F1F1" height="33.9688" rx="12.5" ry="12.5" style="stroke:#181818;stroke-width:0.5;" width="137.4746" x="703.0308" y="157.9375"/><text fill="#000000" font-family="sans-serif" font-size="12" lengthAdjust="spacing" textLength="117.4746" x="713.0308" y="179.0762">3. &#1055;&#1088;&#1080;&#1074;&#1103;&#1079;&#1082;&#1072; &#1082;&#1072;&#1088;&#1090;&#1099;</text><rect fill="#F1F1F1" height="33.9688" rx="12.5" ry="12.5" style="stroke:#181818;stroke-width:0.5;" width="231.1895" x="656.1733" y="211.9063"/><text fill="#000000" font-family="sans-serif" font-size="12" lengthAdjust="spacing" textLength="211.1895" x="666.1733" y="233.0449">4. &#1055;&#1086;&#1087;&#1086;&#1083;&#1085;&#1077;&#1085;&#1080;&#1077; &#1073;&#1072;&#1083;&#1072;&#1085;&#1089;&#1072; &#1092;&#1080;&#1079; &#1083;&#1080;&#1094;&#1072;</text><rect fill="#F1F1F1" height="33.9688" rx="12.5" ry="12.5" style="stroke:#181818;stroke-width:0.5;" width="251.8379" x="645.8491" y="265.875"/><text fill="#000000" font-family="sans-serif" font-size="12" lengthAdjust="spacing" textLength="231.8379" x="655.8491" y="287.0137">5. &#1047;&#1072;&#1082;&#1072;&#1079; &#1089;&#1077;&#1088;&#1074;&#1080;&#1089;&#1086;&#1074; &#1080; &#1079;&#1072;&#1087;&#1091;&#1089;&#1082; &#1089;&#1077;&#1088;&#1074;&#1080;&#1089;&#1086;&#1074;</text><rect fill="#F1F1F1" height="33.9688" rx="12.5" ry="12.5" style="stroke:#181818;stroke-width:0.5;" width="196.3906" x="673.5728" y="363.8438"/><text fill="#000000" font-family="sans-serif" font-size="12" lengthAdjust="spacing" textLength="176.3906" x="683.5728" y="384.9824">2. &#1055;&#1086;&#1083;&#1091;&#1095;&#1080;&#1090;&#1100; &#1089;&#1090;&#1072;&#1090;&#1091;&#1089; &#1087;&#1088;&#1086;&#1077;&#1082;&#1090;&#1072;</text><polygon fill="#F1F1F1" points="716.4753,417.8125,827.0608,417.8125,839.0608,429.8125,827.0608,441.8125,716.4753,441.8125,704.4753,429.8125,716.4753,417.8125" style="stroke:#181818;stroke-width:0.5;"/><text fill="#000000" font-family="sans-serif" font-size="11" lengthAdjust="spacing" textLength="110.5854" x="716.4753" y="433.6206">3. &#1057;&#1090;&#1072;&#1090;&#1091;&#1089; &#1087;&#1088;&#1086;&#1077;&#1082;&#1090;&#1072;?</text><text fill="#008000" font-family="sans-serif" font-size="11" lengthAdjust="spacing" textLength="57.2344" x="647.241" y="427.2183">&#1040;&#1082;&#1090;&#1080;&#1074;&#1085;&#1099;&#1081;</text><text fill="#4682B4" font-family="sans-serif" font-size="11" lengthAdjust="spacing" textLength="66.4028" x="839.0608" y="427.2183">&#1047;&#1072;&#1084;&#1086;&#1088;&#1086;&#1078;&#1077;&#1085;</text><rect fill="#F1F1F1" height="33.9688" rx="12.5" ry="12.5" style="stroke:#181818;stroke-width:0.5;" width="263.252" x="227.4219" y="451.8125"/><text fill="#000000" font-family="sans-serif" font-size="12" lengthAdjust="spacing" textLength="243.252" x="237.4219" y="472.9512">4. &#1055;&#1088;&#1086;&#1074;&#1077;&#1088;&#1080;&#1090;&#1100; &#1086;&#1089;&#1086;&#1073;&#1099;&#1077; &#1091;&#1089;&#1083;&#1086;&#1074;&#1080;&#1103; &#1082;&#1083;&#1080;&#1077;&#1085;&#1090;&#1072;</text><rect fill="#F1F1F1" height="33.9688" rx="12.5" ry="12.5" style="stroke:#181818;stroke-width:0.5;" width="257.6328" x="230.2314" y="569.1836"/><text fill="#000000" font-family="sans-serif" font-size="12" lengthAdjust="spacing" textLength="237.6328" x="240.2314" y="590.3223">6. &#1040;&#1085;&#1072;&#1083;&#1080;&#1079; &#1073;&#1072;&#1083;&#1072;&#1085;&#1089;&#1072; &#1087;&#1088;&#1086;&#1077;&#1082;&#1090;&#1072; &#1080; &#1073;&#1086;&#1085;&#1091;&#1089;&#1086;&#1074;</text><polygon fill="#F1F1F1" points="291.3989,686.5547,426.6968,686.5547,438.6968,698.5547,426.6968,710.5547,291.3989,710.5547,279.3989,698.5547,291.3989,686.5547" style="stroke:#181818;stroke-width:0.5;"/><text fill="#000000" font-family="sans-serif" font-size="11" lengthAdjust="spacing" textLength="135.2979" x="291.3989" y="702.3628">8. &#1041;&#1072;&#1083;&#1072;&#1085;&#1089; &#1087;&#1088;&#1086;&#1077;&#1082;&#1090;&#1072; &gt; 0?</text><text fill="#000000" font-family="sans-serif" font-size="11" lengthAdjust="spacing" textLength="14.3462" x="265.0527" y="695.9604">&#1076;&#1072;</text><text fill="#000000" font-family="sans-serif" font-size="11" lengthAdjust="spacing" textLength="20.3672" x="438.6968" y="695.9604">&#1085;&#1077;&#1090;</text><rect fill="#FFF8DC" height="325.0078" style="stroke:#000000;stroke-width:1.5;" width="276.9375" x="11" y="720.5547"/><line style="stroke:#000000;stroke-width:1.5;" x1="11" x2="287.9375" y1="740.8516" y2="740.8516"/><text fill="#000000" font-family="sans-serif" font-size="14" lengthAdjust="spacing" textLength="197.2305" x="50.8535" y="735.5498">&#1045;&#1078;&#1077;&#1076;&#1085;&#1077;&#1074;&#1085;&#1099;&#1077; &#1091;&#1074;&#1077;&#1076;&#1086;&#1084;&#1083;&#1077;&#1085;&#1080;&#1103;</text><rect fill="#F1F1F1" height="33.9688" rx="12.5" ry="12.5" style="stroke:#181818;stroke-width:0.5;" width="187.2031" x="49.8672" y="756.8516"/><text fill="#000000" font-family="sans-serif" font-size="12" lengthAdjust="spacing" textLength="167.2031" x="59.8672" y="777.9902">9. &#1056;&#1072;&#1089;&#1089;&#1095;&#1080;&#1090;&#1072;&#1090;&#1100; &#1076;&#1085;&#1080; &#1076;&#1086; &#1085;&#1091;&#1083;&#1103;</text><rect fill="#F1F1F1" height="33.9688" rx="12.5" ry="12.5" style="stroke:#181818;stroke-width:0.5;" width="224.9375" x="31" y="874.2227"/><text fill="#000000" font-family="sans-serif" font-size="12" lengthAdjust="spacing" textLength="204.9375" x="41" y="895.3613">11. &#1057;&#1092;&#1086;&#1088;&#1084;&#1080;&#1088;&#1086;&#1074;&#1072;&#1090;&#1100; &#1091;&#1074;&#1077;&#1076;&#1086;&#1084;&#1083;&#1077;&#1085;&#1080;&#1077;</text><rect fill="#F1F1F1" height="33.9688" rx="12.5" ry="12.5" style="stroke:#181818;stroke-width:0.5;" width="166.9355" x="60.001" y="943.1914"/><text fill="#000000" font-family="sans-serif" font-size="12" lengthAdjust="spacing" textLength="146.9355" x="70.001" y="964.3301">12. &#1054;&#1090;&#1087;&#1088;&#1072;&#1074;&#1080;&#1090;&#1100; &#1082;&#1083;&#1080;&#1077;&#1085;&#1090;&#1091;</text><polygon fill="#F1F1F1" points="51.6042,825.8203,235.3333,825.8203,247.3333,837.8203,235.3333,849.8203,51.6042,849.8203,39.6042,837.8203,51.6042,825.8203" style="stroke:#181818;stroke-width:0.5;"/><text fill="#000000" font-family="sans-serif" font-size="11" lengthAdjust="spacing" textLength="14.3462" x="147.4688" y="860.0308">&#1076;&#1072;</text><text fill="#000000" font-family="sans-serif" font-size="11" lengthAdjust="spacing" textLength="183.729" x="51.6042" y="841.6284">10. &#1057;&#1088;&#1077;&#1076;&#1089;&#1090;&#1074; &#1085;&#1072; &gt;0 &#1080; &lt;=5 &#1076;&#1085;&#1077;&#1081;?</text><text fill="#000000" font-family="sans-serif" font-size="11" lengthAdjust="spacing" textLength="20.3672" x="247.3333" y="835.2261">&#1085;&#1077;&#1090;</text><polygon fill="#F1F1F1" points="143.4688,1001.5625,155.4688,1013.5625,143.4688,1025.5625,131.4688,1013.5625,143.4688,1001.5625" style="stroke:#181818;stroke-width:0.5;"/><polygon fill="#F1F1F1" points="489.3555,720.5547,659.8984,720.5547,671.8984,732.5547,659.8984,744.5547,489.3555,744.5547,477.3555,732.5547,489.3555,720.5547" style="stroke:#181818;stroke-width:0.5;"/><text fill="#000000" font-family="sans-serif" font-size="11" lengthAdjust="spacing" textLength="170.543" x="489.3555" y="736.3628">13. &#1045;&#1089;&#1090;&#1100; &#1089;&#1086;&#1079;&#1076;&#1072;&#1085;&#1085;&#1099;&#1077; &#1088;&#1077;&#1089;&#1091;&#1088;&#1089;&#1099;?</text><text fill="#000000" font-family="sans-serif" font-size="11" lengthAdjust="spacing" textLength="14.3462" x="463.0093" y="729.9604">&#1076;&#1072;</text><text fill="#000000" font-family="sans-serif" font-size="11" lengthAdjust="spacing" textLength="20.3672" x="671.8984" y="729.9604">&#1085;&#1077;&#1090;</text><rect fill="#C2F0FF" height="366.1406" style="stroke:#000000;stroke-width:1.5;" width="244.3867" x="317.9375" y="754.5547"/><line style="stroke:#000000;stroke-width:1.5;" x1="317.9375" x2="562.3242" y1="774.8516" y2="774.8516"/><text fill="#000000" font-family="sans-serif" font-size="14" lengthAdjust="spacing" textLength="143.4727" x="368.3945" y="769.5498">&#1047;&#1072;&#1084;&#1086;&#1088;&#1086;&#1079;&#1082;&#1072; &#1087;&#1088;&#1086;&#1077;&#1082;&#1090;&#1072;</text><rect fill="#F1F1F1" height="33.9688" rx="12.5" ry="12.5" style="stroke:#181818;stroke-width:0.5;" width="165.7813" x="357.2402" y="790.8516"/><text fill="#000000" font-family="sans-serif" font-size="12" lengthAdjust="spacing" textLength="145.7813" x="367.2402" y="811.9902">14. &#1047;&#1072;&#1084;&#1086;&#1088;&#1086;&#1079;&#1080;&#1090;&#1100; &#1087;&#1088;&#1086;&#1077;&#1082;&#1090;</text><rect fill="#F1F1F1" height="33.9688" rx="12.5" ry="12.5" style="stroke:#181818;stroke-width:0.5;" width="198.4766" x="340.8926" y="859.8203"/><text fill="#000000" font-family="sans-serif" font-size="12" lengthAdjust="spacing" textLength="178.4766" x="350.8926" y="880.959">15. &#1054;&#1089;&#1090;&#1072;&#1085;&#1086;&#1074;&#1080;&#1090;&#1100; &#1074;&#1089;&#1077; &#1088;&#1077;&#1089;&#1091;&#1088;&#1089;&#1099;</text><rect fill="#F1F1F1" height="33.9688" rx="12.5" ry="12.5" style="stroke:#181818;stroke-width:0.5;" width="224.3867" x="327.9375" y="928.7891"/><text fill="#000000" font-family="sans-serif" font-size="12" lengthAdjust="spacing" textLength="204.3867" x="337.9375" y="949.9277">16. &#1059;&#1089;&#1090;&#1072;&#1085;&#1086;&#1074;&#1080;&#1090;&#1100; &#1074;&#1088;&#1077;&#1084;&#1077;&#1085;&#1085;&#1099;&#1077; &#1088;&#1086;&#1083;&#1080;</text><rect fill="#F1F1F1" height="33.9688" rx="12.5" ry="12.5" style="stroke:#181818;stroke-width:0.5;" width="170.2461" x="355.0078" y="997.7578"/><text fill="#000000" font-family="sans-serif" font-size="12" lengthAdjust="spacing" textLength="150.2461" x="365.0078" y="1018.8965">17. &#1041;&#1072;&#1085;&#1085;&#1077;&#1088; &#1086; &#1079;&#1072;&#1084;&#1086;&#1088;&#1086;&#1079;&#1082;&#1077;</text><rect fill="#F1F1F1" height="33.9688" rx="12.5" ry="12.5" style="stroke:#181818;stroke-width:0.5;" width="208.5078" x="335.877" y="1066.7266"/><text fill="#000000" font-family="sans-serif" font-size="12" lengthAdjust="spacing" textLength="188.5078" x="345.877" y="1087.8652">18. &#1059;&#1074;&#1077;&#1076;&#1086;&#1084;&#1083;&#1077;&#1085;&#1080;&#1077; &#1086; &#1079;&#1072;&#1084;&#1086;&#1088;&#1086;&#1079;&#1082;&#1077;</text><rect fill="#DCDCDC" height="90.2656" style="stroke:#000000;stroke-width:1.5;" width="253.5977" x="582.3242" y="754.5547"/><line style="stroke:#000000;stroke-width:1.5;" x1="582.3242" x2="835.9219" y1="774.8516" y2="774.8516"/><text fill="#000000" font-family="sans-serif" font-size="14" lengthAdjust="spacing" textLength="160.501" x="628.8726" y="769.5498">&#1041;&#1083;&#1086;&#1082;&#1080;&#1088;&#1086;&#1074;&#1082;&#1072; &#1089;&#1086;&#1079;&#1076;&#1072;&#1085;&#1080;&#1103;</text><rect fill="#F1F1F1" height="33.9688" rx="12.5" ry="12.5" style="stroke:#181818;stroke-width:0.5;" width="233.5977" x="592.3242" y="790.8516"/><text fill="#000000" font-family="sans-serif" font-size="12" lengthAdjust="spacing" textLength="213.5977" x="602.3242" y="811.9902">19. &#1047;&#1072;&#1087;&#1088;&#1077;&#1090;&#1080;&#1090;&#1100; &#1089;&#1086;&#1079;&#1076;&#1072;&#1085;&#1080;&#1077; &#1088;&#1077;&#1089;&#1091;&#1088;&#1089;&#1086;&#1074;</text><polygon fill="#F1F1F1" points="574.627,1126.6953,586.627,1138.6953,574.627,1150.6953,562.627,1138.6953,574.627,1126.6953" style="stroke:#181818;stroke-width:0.5;"/><polygon fill="#F1F1F1" points="359.0479,1156.6953,371.0479,1168.6953,359.0479,1180.6953,347.0479,1168.6953,359.0479,1156.6953" style="stroke:#181818;stroke-width:0.5;"/><polygon fill="#F1F1F1" points="291.8931,638.1523,426.2026,638.1523,438.2026,650.1523,426.2026,662.1523,291.8931,662.1523,279.8931,650.1523,291.8931,638.1523" style="stroke:#181818;stroke-width:0.5;"/><text fill="#000000" font-family="sans-serif" font-size="11" lengthAdjust="spacing" textLength="20.3672" x="363.0479" y="672.3628">&#1085;&#1077;&#1090;</text><text fill="#000000" font-family="sans-serif" font-size="11" lengthAdjust="spacing" textLength="134.3096" x="291.8931" y="653.9604">7. &#1041;&#1072;&#1083;&#1072;&#1085;&#1089; &#1073;&#1086;&#1085;&#1091;&#1089;&#1086;&#1074; &gt; 0?</text><text fill="#000000" font-family="sans-serif" font-size="11" lengthAdjust="spacing" textLength="14.3462" x="438.2026" y="647.5581">&#1076;&#1072;</text><polygon fill="#F1F1F1" points="359.0479,1200.6953,371.0479,1212.6953,359.0479,1224.6953,347.0479,1212.6953,359.0479,1200.6953" style="stroke:#181818;stroke-width:0.5;"/><polygon fill="#F1F1F1" points="256.6963,520.7813,461.3994,520.7813,473.3994,532.7813,461.3994,544.7813,256.6963,544.7813,244.6963,532.7813,256.6963,520.7813" style="stroke:#181818;stroke-width:0.5;"/><text fill="#000000" font-family="sans-serif" font-size="11" lengthAdjust="spacing" textLength="20.3672" x="363.0479" y="554.9917">&#1085;&#1077;&#1090;</text><text fill="#000000" font-family="sans-serif" font-size="11" lengthAdjust="spacing" textLength="204.7031" x="256.6963" y="536.5894">5. &#1047;&#1072;&#1097;&#1080;&#1090;&#1072; &#1086;&#1090; &#1079;&#1072;&#1084;&#1086;&#1088;&#1086;&#1079;&#1082;&#1080;/&#1091;&#1076;&#1072;&#1083;&#1077;&#1085;&#1080;&#1103;?</text><text fill="#000000" font-family="sans-serif" font-size="11" lengthAdjust="spacing" textLength="14.3462" x="473.3994" y="530.187">&#1076;&#1072;</text><polygon fill="#F1F1F1" points="359.0479,1244.6953,371.0479,1256.6953,359.0479,1268.6953,347.0479,1256.6953,359.0479,1244.6953" style="stroke:#181818;stroke-width:0.5;"/><rect fill="#FFB6C1" height="457.9766" style="stroke:#000000;stroke-width:1.5;" width="512.958" x="915.4636" y="451.8125"/><line style="stroke:#000000;stroke-width:1.5;" x1="915.4636" x2="1428.4216" y1="472.1094" y2="472.1094"/><text fill="#000000" font-family="sans-serif" font-size="14" lengthAdjust="spacing" textLength="196.5811" x="1073.6521" y="466.8076">&#1040;&#1074;&#1090;&#1086;&#1084;&#1072;&#1090;&#1080;&#1095;&#1077;&#1089;&#1082;&#1086;&#1077; &#1091;&#1076;&#1072;&#1083;&#1077;&#1085;&#1080;&#1077;</text><rect fill="#F1F1F1" height="33.9688" rx="12.5" ry="12.5" style="stroke:#181818;stroke-width:0.5;" width="267.2012" x="1046.4294" y="488.1094"/><text fill="#000000" font-family="sans-serif" font-size="12" lengthAdjust="spacing" textLength="247.2012" x="1056.4294" y="509.248">20. &#1055;&#1088;&#1086;&#1074;&#1077;&#1088;&#1082;&#1072; &#1085;&#1072;&#1089;&#1090;&#1088;&#1086;&#1081;&#1082;&#1080; &#1072;&#1074;&#1090;&#1086;&#1091;&#1076;&#1072;&#1083;&#1077;&#1085;&#1080;&#1103;</text><polygon fill="#F1F1F1" points="1100.5701,557.0781,1259.49,557.0781,1271.49,569.0781,1259.49,581.0781,1100.5701,581.0781,1088.5701,569.0781,1100.5701,557.0781" style="stroke:#181818;stroke-width:0.5;"/><text fill="#000000" font-family="sans-serif" font-size="11" lengthAdjust="spacing" textLength="158.9199" x="1100.5701" y="572.8862">21. autodeleteobject = true?</text><text fill="#000000" font-family="sans-serif" font-size="11" lengthAdjust="spacing" textLength="14.3462" x="1074.2239" y="566.4839">&#1076;&#1072;</text><text fill="#000000" font-family="sans-serif" font-size="11" lengthAdjust="spacing" textLength="20.3672" x="1271.49" y="566.4839">&#1085;&#1077;&#1090;</text><rect fill="#F1F1F1" height="33.9688" rx="12.5" ry="12.5" style="stroke:#181818;stroke-width:0.5;" width="238.5195" x="935.4636" y="591.0781"/><text fill="#000000" font-family="sans-serif" font-size="12" lengthAdjust="spacing" textLength="218.5195" x="945.4636" y="612.2168">22. &#1055;&#1088;&#1086;&#1074;&#1077;&#1088;&#1082;&#1072; 30 &#1076;&#1085;&#1077;&#1081; &#1089; &#1079;&#1072;&#1084;&#1086;&#1088;&#1086;&#1079;&#1082;&#1080;</text><rect fill="#F1F1F1" height="33.9688" rx="12.5" ry="12.5" style="stroke:#181818;stroke-width:0.5;" width="151.5957" x="978.9255" y="708.4492"/><text fill="#000000" font-family="sans-serif" font-size="12" lengthAdjust="spacing" textLength="131.5957" x="988.9255" y="729.5879">24. &#1059;&#1076;&#1072;&#1083;&#1080;&#1090;&#1100; &#1088;&#1077;&#1089;&#1091;&#1088;&#1089;&#1099;</text><rect fill="#F1F1F1" height="33.9688" rx="12.5" ry="12.5" style="stroke:#181818;stroke-width:0.5;" width="211.0566" x="949.1951" y="777.418"/><text fill="#000000" font-family="sans-serif" font-size="12" lengthAdjust="spacing" textLength="191.0566" x="959.1951" y="798.5566">25. &#1059;&#1074;&#1077;&#1076;&#1086;&#1084;&#1083;&#1077;&#1085;&#1080;&#1077; &#1086;&#1073; &#1091;&#1076;&#1072;&#1083;&#1077;&#1085;&#1080;&#1080;</text><polygon fill="#F1F1F1" points="1013.5969,660.0469,1095.8499,660.0469,1107.8499,672.0469,1095.8499,684.0469,1013.5969,684.0469,1001.5969,672.0469,1013.5969,660.0469" style="stroke:#181818;stroke-width:0.5;"/><text fill="#000000" font-family="sans-serif" font-size="11" lengthAdjust="spacing" textLength="14.3462" x="1058.7234" y="694.2573">&#1076;&#1072;</text><text fill="#000000" font-family="sans-serif" font-size="11" lengthAdjust="spacing" textLength="82.2529" x="1013.5969" y="675.855">23. &#8805;30 &#1076;&#1085;&#1077;&#1081;?</text><text fill="#000000" font-family="sans-serif" font-size="11" lengthAdjust="spacing" textLength="20.3672" x="1107.8499" y="669.4526">&#1085;&#1077;&#1090;</text><polygon fill="#F1F1F1" points="1054.7234,835.7891,1066.7234,847.7891,1054.7234,859.7891,1042.7234,847.7891,1054.7234,835.7891" style="stroke:#181818;stroke-width:0.5;"/><rect fill="#F1F1F1" height="33.9688" rx="12.5" ry="12.5" style="stroke:#181818;stroke-width:0.5;" width="206.1699" x="1202.2517" y="591.0781"/><text fill="#000000" font-family="sans-serif" font-size="12" lengthAdjust="spacing" textLength="186.1699" x="1212.2517" y="612.2168">26. &#1040;&#1074;&#1090;&#1086;&#1091;&#1076;&#1072;&#1083;&#1077;&#1085;&#1080;&#1077; &#1086;&#1090;&#1082;&#1083;&#1102;&#1095;&#1077;&#1085;&#1086;</text><polygon fill="#F1F1F1" points="1180.03,865.7891,1192.03,877.7891,1180.03,889.7891,1168.03,877.7891,1180.03,865.7891" style="stroke:#181818;stroke-width:0.5;"/><polygon fill="#F1F1F1" points="771.7681,1274.6953,783.7681,1286.6953,771.7681,1298.6953,759.7681,1286.6953,771.7681,1274.6953" style="stroke:#181818;stroke-width:0.5;"/><polygon fill="#F1F1F1" points="771.7681,319.8438,783.7681,331.8438,771.7681,343.8438,759.7681,331.8438,771.7681,319.8438" style="stroke:#181818;stroke-width:0.5;"/><polygon fill="#F1F1F1" points="659.9392,1318.6953,883.5969,1318.6953,895.5969,1330.6953,883.5969,1342.6953,659.9392,1342.6953,647.9392,1330.6953,659.9392,1318.6953" style="stroke:#181818;stroke-width:0.5;"/><text fill="#000000" font-family="sans-serif" font-size="11" lengthAdjust="spacing" textLength="223.6577" x="659.9392" y="1334.5034">24. &#1054;&#1089;&#1090;&#1072;&#1083;&#1080;&#1089;&#1100; &#1085;&#1077;&#1087;&#1088;&#1086;&#1074;&#1077;&#1088;&#1077;&#1085;&#1085;&#1099;&#1077; &#1087;&#1088;&#1086;&#1077;&#1082;&#1090;&#1099;</text><ellipse cx="771.7681" cy="1373.6953" fill="none" rx="11" ry="11" style="stroke:#222222;stroke-width:1;"/><ellipse cx="771.7681" cy="1373.6953" fill="#222222" rx="6" ry="6" style="stroke:#222222;stroke-width:1;"/><line style="stroke:#181818;stroke-width:1;" x1="771.7681" x2="771.7681" y1="30" y2="50"/><polygon fill="#181818" points="767.7681,40,771.7681,50,775.7681,40,771.7681,44" style="stroke:#181818;stroke-width:1;"/><line style="stroke:#181818;stroke-width:1;" x1="771.7681" x2="771.7681" y1="83.9688" y2="103.9688"/><polygon fill="#181818" points="767.7681,93.9688,771.7681,103.9688,775.7681,93.9688,771.7681,97.9688" style="stroke:#181818;stroke-width:1;"/><line style="stroke:#181818;stroke-width:1;" x1="771.7681" x2="771.7681" y1="137.9375" y2="157.9375"/><polygon fill="#181818" points="767.7681,147.9375,771.7681,157.9375,775.7681,147.9375,771.7681,151.9375" style="stroke:#181818;stroke-width:1;"/><line style="stroke:#181818;stroke-width:1;" x1="771.7681" x2="771.7681" y1="191.9063" y2="211.9063"/><polygon fill="#181818" points="767.7681,201.9063,771.7681,211.9063,775.7681,201.9063,771.7681,205.9063" style="stroke:#181818;stroke-width:1;"/><line style="stroke:#181818;stroke-width:1;" x1="771.7681" x2="771.7681" y1="245.875" y2="265.875"/><polygon fill="#181818" points="767.7681,255.875,771.7681,265.875,775.7681,255.875,771.7681,259.875" style="stroke:#181818;stroke-width:1;"/><line style="stroke:#181818;stroke-width:1;" x1="143.4688" x2="143.4688" y1="908.1914" y2="943.1914"/><polygon fill="#181818" points="139.4688,933.1914,143.4688,943.1914,147.4688,933.1914,143.4688,937.1914" style="stroke:#181818;stroke-width:1;"/><line style="stroke:#181818;stroke-width:1;" x1="143.4688" x2="143.4688" y1="849.8203" y2="874.2227"/><polygon fill="#181818" points="139.4688,864.2227,143.4688,874.2227,147.4688,864.2227,143.4688,868.2227" style="stroke:#181818;stroke-width:1;"/><line style="stroke:#181818;stroke-width:1;" x1="247.3333" x2="265.9375" y1="837.8203" y2="837.8203"/><polygon fill="#181818" points="261.9375,915.6914,265.9375,925.6914,269.9375,915.6914,265.9375,919.6914" style="stroke:#181818;stroke-width:1;"/><line style="stroke:#181818;stroke-width:1;" x1="265.9375" x2="265.9375" y1="837.8203" y2="1013.5625"/><line style="stroke:#181818;stroke-width:1;" x1="265.9375" x2="155.4688" y1="1013.5625" y2="1013.5625"/><polygon fill="#181818" points="165.4688,1009.5625,155.4688,1013.5625,165.4688,1017.5625,161.4688,1013.5625" style="stroke:#181818;stroke-width:1;"/><line style="stroke:#181818;stroke-width:1;" x1="143.4688" x2="143.4688" y1="977.1602" y2="1001.5625"/><polygon fill="#181818" points="139.4688,991.5625,143.4688,1001.5625,147.4688,991.5625,143.4688,995.5625" style="stroke:#181818;stroke-width:1;"/><line style="stroke:#181818;stroke-width:1;" x1="143.4688" x2="143.4688" y1="790.8203" y2="825.8203"/><polygon fill="#181818" points="139.4688,815.8203,143.4688,825.8203,147.4688,815.8203,143.4688,819.8203" style="stroke:#181818;stroke-width:1;"/><line style="stroke:#181818;stroke-width:1;" x1="440.1309" x2="440.1309" y1="824.8203" y2="859.8203"/><polygon fill="#181818" points="436.1309,849.8203,440.1309,859.8203,444.1309,849.8203,440.1309,853.8203" style="stroke:#181818;stroke-width:1;"/><line style="stroke:#181818;stroke-width:1;" x1="440.1309" x2="440.1309" y1="893.7891" y2="928.7891"/><polygon fill="#181818" points="436.1309,918.7891,440.1309,928.7891,444.1309,918.7891,440.1309,922.7891" style="stroke:#181818;stroke-width:1;"/><line style="stroke:#181818;stroke-width:1;" x1="440.1309" x2="440.1309" y1="962.7578" y2="997.7578"/><polygon fill="#181818" points="436.1309,987.7578,440.1309,997.7578,444.1309,987.7578,440.1309,991.7578" style="stroke:#181818;stroke-width:1;"/><line style="stroke:#181818;stroke-width:1;" x1="440.1309" x2="440.1309" y1="1031.7266" y2="1066.7266"/><polygon fill="#181818" points="436.1309,1056.7266,440.1309,1066.7266,444.1309,1056.7266,440.1309,1060.7266" style="stroke:#181818;stroke-width:1;"/><line style="stroke:#181818;stroke-width:1;" x1="477.3555" x2="440.1309" y1="732.5547" y2="732.5547"/><line style="stroke:#181818;stroke-width:1;" x1="440.1309" x2="440.1309" y1="732.5547" y2="790.8516"/><polygon fill="#181818" points="436.1309,780.8516,440.1309,790.8516,444.1309,780.8516,440.1309,784.8516" style="stroke:#181818;stroke-width:1;"/><line style="stroke:#181818;stroke-width:1;" x1="671.8984" x2="709.123" y1="732.5547" y2="732.5547"/><line style="stroke:#181818;stroke-width:1;" x1="709.123" x2="709.123" y1="732.5547" y2="790.8516"/><polygon fill="#181818" points="705.123,780.8516,709.123,790.8516,713.123,780.8516,709.123,784.8516" style="stroke:#181818;stroke-width:1;"/><line style="stroke:#181818;stroke-width:1;" x1="440.1309" x2="440.1309" y1="1100.6953" y2="1138.6953"/><line style="stroke:#181818;stroke-width:1;" x1="440.1309" x2="562.627" y1="1138.6953" y2="1138.6953"/><polygon fill="#181818" points="552.627,1134.6953,562.627,1138.6953,552.627,1142.6953,556.627,1138.6953" style="stroke:#181818;stroke-width:1;"/><line style="stroke:#181818;stroke-width:1;" x1="709.123" x2="709.123" y1="824.8203" y2="1138.6953"/><line style="stroke:#181818;stroke-width:1;" x1="709.123" x2="586.627" y1="1138.6953" y2="1138.6953"/><polygon fill="#181818" points="596.627,1134.6953,586.627,1138.6953,596.627,1142.6953,592.627,1138.6953" style="stroke:#181818;stroke-width:1;"/><line style="stroke:#181818;stroke-width:1;" x1="279.3989" x2="143.4688" y1="698.5547" y2="698.5547"/><line style="stroke:#181818;stroke-width:1;" x1="143.4688" x2="143.4688" y1="698.5547" y2="756.8516"/><polygon fill="#181818" points="139.4688,746.8516,143.4688,756.8516,147.4688,746.8516,143.4688,750.8516" style="stroke:#181818;stroke-width:1;"/><line style="stroke:#181818;stroke-width:1;" x1="438.6968" x2="574.627" y1="698.5547" y2="698.5547"/><line style="stroke:#181818;stroke-width:1;" x1="574.627" x2="574.627" y1="698.5547" y2="720.5547"/><polygon fill="#181818" points="570.627,710.5547,574.627,720.5547,578.627,710.5547,574.627,714.5547" style="stroke:#181818;stroke-width:1;"/><line style="stroke:#181818;stroke-width:1;" x1="143.4688" x2="143.4688" y1="1025.5625" y2="1168.6953"/><line style="stroke:#181818;stroke-width:1;" x1="143.4688" x2="347.0479" y1="1168.6953" y2="1168.6953"/><polygon fill="#181818" points="337.0479,1164.6953,347.0479,1168.6953,337.0479,1172.6953,341.0479,1168.6953" style="stroke:#181818;stroke-width:1;"/><line style="stroke:#181818;stroke-width:1;" x1="574.627" x2="574.627" y1="1150.6953" y2="1168.6953"/><line style="stroke:#181818;stroke-width:1;" x1="574.627" x2="371.0479" y1="1168.6953" y2="1168.6953"/><polygon fill="#181818" points="381.0479,1164.6953,371.0479,1168.6953,381.0479,1172.6953,377.0479,1168.6953" style="stroke:#181818;stroke-width:1;"/><line style="stroke:#181818;stroke-width:1;" x1="359.0479" x2="359.0479" y1="662.1523" y2="686.5547"/><polygon fill="#181818" points="355.0479,676.5547,359.0479,686.5547,363.0479,676.5547,359.0479,680.5547" style="stroke:#181818;stroke-width:1;"/><line style="stroke:#181818;stroke-width:1;" x1="438.2026" x2="865.9219" y1="650.1523" y2="650.1523"/><polygon fill="#181818" points="861.9219,923.625,865.9219,933.625,869.9219,923.625,865.9219,927.625" style="stroke:#181818;stroke-width:1;"/><line style="stroke:#181818;stroke-width:1;" x1="865.9219" x2="865.9219" y1="650.1523" y2="1212.6953"/><line style="stroke:#181818;stroke-width:1;" x1="865.9219" x2="371.0479" y1="1212.6953" y2="1212.6953"/><polygon fill="#181818" points="381.0479,1208.6953,371.0479,1212.6953,381.0479,1216.6953,377.0479,1212.6953" style="stroke:#181818;stroke-width:1;"/><line style="stroke:#181818;stroke-width:1;" x1="359.0479" x2="359.0479" y1="1180.6953" y2="1200.6953"/><polygon fill="#181818" points="355.0479,1190.6953,359.0479,1200.6953,363.0479,1190.6953,359.0479,1194.6953" style="stroke:#181818;stroke-width:1;"/><line style="stroke:#181818;stroke-width:1;" x1="359.0479" x2="359.0479" y1="603.1523" y2="638.1523"/><polygon fill="#181818" points="355.0479,628.1523,359.0479,638.1523,363.0479,628.1523,359.0479,632.1523" style="stroke:#181818;stroke-width:1;"/><line style="stroke:#181818;stroke-width:1;" x1="359.0479" x2="359.0479" y1="544.7813" y2="569.1836"/><polygon fill="#181818" points="355.0479,559.1836,359.0479,569.1836,363.0479,559.1836,359.0479,563.1836" style="stroke:#181818;stroke-width:1;"/><line style="stroke:#181818;stroke-width:1;" x1="473.3994" x2="887.9219" y1="532.7813" y2="532.7813"/><polygon fill="#181818" points="883.9219,889.1406,887.9219,899.1406,891.9219,889.1406,887.9219,893.1406" style="stroke:#181818;stroke-width:1;"/><line style="stroke:#181818;stroke-width:1;" x1="887.9219" x2="887.9219" y1="532.7813" y2="1256.6953"/><line style="stroke:#181818;stroke-width:1;" x1="887.9219" x2="371.0479" y1="1256.6953" y2="1256.6953"/><polygon fill="#181818" points="381.0479,1252.6953,371.0479,1256.6953,381.0479,1260.6953,377.0479,1256.6953" style="stroke:#181818;stroke-width:1;"/><line style="stroke:#181818;stroke-width:1;" x1="359.0479" x2="359.0479" y1="1224.6953" y2="1244.6953"/><polygon fill="#181818" points="355.0479,1234.6953,359.0479,1244.6953,363.0479,1234.6953,359.0479,1238.6953" style="stroke:#181818;stroke-width:1;"/><line style="stroke:#181818;stroke-width:1;" x1="359.0479" x2="359.0479" y1="485.7813" y2="520.7813"/><polygon fill="#181818" points="355.0479,510.7813,359.0479,520.7813,363.0479,510.7813,359.0479,514.7813" style="stroke:#181818;stroke-width:1;"/><line style="stroke:#181818;stroke-width:1;" x1="1054.7234" x2="1054.7234" y1="742.418" y2="777.418"/><polygon fill="#181818" points="1050.7234,767.418,1054.7234,777.418,1058.7234,767.418,1054.7234,771.418" style="stroke:#181818;stroke-width:1;"/><line style="stroke:#181818;stroke-width:1;" x1="1054.7234" x2="1054.7234" y1="684.0469" y2="708.4492"/><polygon fill="#181818" points="1050.7234,698.4492,1054.7234,708.4492,1058.7234,698.4492,1054.7234,702.4492" style="stroke:#181818;stroke-width:1;"/><line style="stroke:#181818;stroke-width:1;" x1="1107.8499" x2="1170.2517" y1="672.0469" y2="672.0469"/><polygon fill="#181818" points="1166.2517,749.918,1170.2517,759.918,1174.2517,749.918,1170.2517,753.918" style="stroke:#181818;stroke-width:1;"/><line style="stroke:#181818;stroke-width:1;" x1="1170.2517" x2="1170.2517" y1="672.0469" y2="847.7891"/><line style="stroke:#181818;stroke-width:1;" x1="1170.2517" x2="1066.7234" y1="847.7891" y2="847.7891"/><polygon fill="#181818" points="1076.7234,843.7891,1066.7234,847.7891,1076.7234,851.7891,1072.7234,847.7891" style="stroke:#181818;stroke-width:1;"/><line style="stroke:#181818;stroke-width:1;" x1="1054.7234" x2="1054.7234" y1="811.3867" y2="835.7891"/><polygon fill="#181818" points="1050.7234,825.7891,1054.7234,835.7891,1058.7234,825.7891,1054.7234,829.7891" style="stroke:#181818;stroke-width:1;"/><line style="stroke:#181818;stroke-width:1;" x1="1054.7234" x2="1054.7234" y1="625.0469" y2="660.0469"/><polygon fill="#181818" points="1050.7234,650.0469,1054.7234,660.0469,1058.7234,650.0469,1054.7234,654.0469" style="stroke:#181818;stroke-width:1;"/><line style="stroke:#181818;stroke-width:1;" x1="1088.5701" x2="1054.7234" y1="569.0781" y2="569.0781"/><line style="stroke:#181818;stroke-width:1;" x1="1054.7234" x2="1054.7234" y1="569.0781" y2="591.0781"/><polygon fill="#181818" points="1050.7234,581.0781,1054.7234,591.0781,1058.7234,581.0781,1054.7234,585.0781" style="stroke:#181818;stroke-width:1;"/><line style="stroke:#181818;stroke-width:1;" x1="1271.49" x2="1305.3367" y1="569.0781" y2="569.0781"/><line style="stroke:#181818;stroke-width:1;" x1="1305.3367" x2="1305.3367" y1="569.0781" y2="591.0781"/><polygon fill="#181818" points="1301.3367,581.0781,1305.3367,591.0781,1309.3367,581.0781,1305.3367,585.0781" style="stroke:#181818;stroke-width:1;"/><line style="stroke:#181818;stroke-width:1;" x1="1054.7234" x2="1054.7234" y1="859.7891" y2="877.7891"/><line style="stroke:#181818;stroke-width:1;" x1="1054.7234" x2="1168.03" y1="877.7891" y2="877.7891"/><polygon fill="#181818" points="1158.03,873.7891,1168.03,877.7891,1158.03,881.7891,1162.03,877.7891" style="stroke:#181818;stroke-width:1;"/><line style="stroke:#181818;stroke-width:1;" x1="1305.3367" x2="1305.3367" y1="625.0469" y2="877.7891"/><line style="stroke:#181818;stroke-width:1;" x1="1305.3367" x2="1192.03" y1="877.7891" y2="877.7891"/><polygon fill="#181818" points="1202.03,873.7891,1192.03,877.7891,1202.03,881.7891,1198.03,877.7891" style="stroke:#181818;stroke-width:1;"/><line style="stroke:#181818;stroke-width:1;" x1="1180.03" x2="1180.03" y1="522.0781" y2="557.0781"/><polygon fill="#181818" points="1176.03,547.0781,1180.03,557.0781,1184.03,547.0781,1180.03,551.0781" style="stroke:#181818;stroke-width:1;"/><line style="stroke:#181818;stroke-width:1;" x1="704.4753" x2="359.0479" y1="429.8125" y2="429.8125"/><line style="stroke:#181818;stroke-width:1;" x1="359.0479" x2="359.0479" y1="429.8125" y2="451.8125"/><polygon fill="#181818" points="355.0479,441.8125,359.0479,451.8125,363.0479,441.8125,359.0479,445.8125" style="stroke:#181818;stroke-width:1;"/><line style="stroke:#181818;stroke-width:1;" x1="839.0608" x2="1180.03" y1="429.8125" y2="429.8125"/><line style="stroke:#181818;stroke-width:1;" x1="1180.03" x2="1180.03" y1="429.8125" y2="488.1094"/><polygon fill="#181818" points="1176.03,478.1094,1180.03,488.1094,1184.03,478.1094,1180.03,482.1094" style="stroke:#181818;stroke-width:1;"/><line style="stroke:#181818;stroke-width:1;" x1="359.0479" x2="359.0479" y1="1268.6953" y2="1286.6953"/><line style="stroke:#181818;stroke-width:1;" x1="359.0479" x2="759.7681" y1="1286.6953" y2="1286.6953"/><polygon fill="#181818" points="749.7681,1282.6953,759.7681,1286.6953,749.7681,1290.6953,753.7681,1286.6953" style="stroke:#181818;stroke-width:1;"/><line style="stroke:#181818;stroke-width:1;" x1="1180.03" x2="1180.03" y1="889.7891" y2="1286.6953"/><line style="stroke:#181818;stroke-width:1;" x1="1180.03" x2="783.7681" y1="1286.6953" y2="1286.6953"/><polygon fill="#181818" points="793.7681,1282.6953,783.7681,1286.6953,793.7681,1290.6953,789.7681,1286.6953" style="stroke:#181818;stroke-width:1;"/><line style="stroke:#181818;stroke-width:1;" x1="771.7681" x2="771.7681" y1="397.8125" y2="417.8125"/><polygon fill="#181818" points="767.7681,407.8125,771.7681,417.8125,775.7681,407.8125,771.7681,411.8125" style="stroke:#181818;stroke-width:1;"/><line style="stroke:#181818;stroke-width:1;" x1="771.7681" x2="771.7681" y1="343.8438" y2="363.8438"/><polygon fill="#181818" points="767.7681,353.8438,771.7681,363.8438,775.7681,353.8438,771.7681,357.8438" style="stroke:#181818;stroke-width:1;"/><line style="stroke:#181818;stroke-width:1;" x1="895.5969" x2="1442.4216" y1="1330.6953" y2="1330.6953"/><polygon fill="#181818" points="1438.4216,838.1719,1442.4216,828.1719,1446.4216,838.1719,1442.4216,834.1719" style="stroke:#181818;stroke-width:1;"/><line style="stroke:#181818;stroke-width:1;" x1="1442.4216" x2="1442.4216" y1="331.8438" y2="1330.6953"/><line style="stroke:#181818;stroke-width:1;" x1="1442.4216" x2="783.7681" y1="331.8438" y2="331.8438"/><polygon fill="#181818" points="793.7681,327.8438,783.7681,331.8438,793.7681,335.8438,789.7681,331.8438" style="stroke:#181818;stroke-width:1;"/><line style="stroke:#181818;stroke-width:1;" x1="771.7681" x2="771.7681" y1="1298.6953" y2="1318.6953"/><polygon fill="#181818" points="767.7681,1308.6953,771.7681,1318.6953,775.7681,1308.6953,771.7681,1312.6953" style="stroke:#181818;stroke-width:1;"/><line style="stroke:#181818;stroke-width:1;" x1="771.7681" x2="771.7681" y1="299.8438" y2="319.8438"/><polygon fill="#181818" points="767.7681,309.8438,771.7681,319.8438,775.7681,309.8438,771.7681,313.8438" style="stroke:#181818;stroke-width:1;"/><line style="stroke:#181818;stroke-width:1;" x1="771.7681" x2="771.7681" y1="1342.6953" y2="1362.6953"/><polygon fill="#181818" points="767.7681,1352.6953,771.7681,1362.6953,775.7681,1352.6953,771.7681,1356.6953" style="stroke:#181818;stroke-width:1;"/><!--SRC=[ZLRDJjj04BxxALRg1IuqCQGj2L2rFN3feLAV80HJNAmuSenw0AJye294rT03wgqjGhsRb9IGaEGLTb-XJz9lPlDZEpOjKh0pkpFxpJSpt-PGNigkggk6xCXx6HmQLR_e-KO-koJa3zX-wLLLau7wYFTMmSYRMFikXtA4JryEi6iWkx8Zv3KC0zLKTJpRsBXC6-7QbMtLahUo9mD1_rGD4S-mOIKzKW13W6Xr-AXZM6y5B5s02E2OW-DNh2CO5h2fWsFQX9ME5h8hS5mWHmocDxUXO1YULR6A_YoPFhQUOBsXFWdc8y0hl0M2rB3UaJqo5WnxHonGOfUfUvul2d_NAek5jPBhk5v-qxEiyeOyvrLmWQpEvDsY8V2dAM3lDcFK2EIGWLvZOqTm4dtUWG8GWtrY2M4O48KXK6DEr2d58AQ7gg5fkCShdK0Lw3vMJNd3z3BRgZM5IsQDodAg5hwZ8AgXBOpr2KuuXpLW0BVnCaLPu2B4Ec8IYU0-HR0lC__ONh4XCWd0qi5DmZwBXus2cWzRAdhRuj4hrojNRMTFo0lv6xjlk1jrgQW2L1qOX-1oIfmuY9pE5Atot0JeeBfk9-uH59G2Tkan59Gb-grLc7EVCr16sGntMuq0S6UYlmUKIeOeNblFYJ7QknJ28W2pMOvsp2rn3uIwzJJAf3nbfv0IYKRd6_0Gmm4t9sSQQa_LdFTDBn-lbhVj7UF8-7yFfeW6yeA5YgQNMvrwV32f7yZ3QXF2KrTdYGtmeb9nx5BHjzsobfRmqCprza4A9IjBSUSnAI7tD3fpJ2TB3u0FPuIsIRvYEQG5eH6zIWvIOudlX4aXrUscXPeCw82PhmdgtBYQfFO6ZU5LKZEbXJdwHwFeAcqMxN9ro_LSWaQIs9jsC5KfKlha2TNmLiTr6Z6hZQdkXzrZd4SLB3ArHobjd6wPVTDlEjVnVV7MjopdfRDlRKHwYMHfC27YjVrkrtzZb_T8aTl8W4WEE9CJmWmwXbguGbeFWoOaRsPYrmxt-825gy7cEw9Mq5nJyFYTCRjrJEX9STztjot7yYrtwxrLyiMwyBrzAqMEygQPSFXoPYfZWcHxxjwAtXuc9lxFwS-GrmFYbpTNk1rr2kDQHySfHOFpPkw1HfRNSO93A9DLArJuv3lMr9Ti0kjy9CpGL_MPgam3NZ32ggcV-gUD-B1hEpY1Sv_eIfz_pdqIJDaeL8APB8IbIfqjuWUXM_aB]--></g></svg>